HIERARCHY
ROOT Hips
{
	OFFSET 0.000000 88.474243 0.000000
	CHANNELS 6 Xposition Yposition Zposition Zrotation Yrotation Xrotation 
	JOINT Hips_Spine
	{
		OFFSET 0.000000 0.000000 0.000000
		CHANNELS 3 Zrotation Yrotation Xrotation
		JOINT Spine
		{
			OFFSET 0.005100 8.711998 -0.691000
			CHANNELS 3 Zrotation Yrotation Xrotation
			JOINT Spine1
			{
				OFFSET -0.009200 8.660301 -1.275000
				CHANNELS 3 Zrotation Yrotation Xrotation
				JOINT Spine2
				{
					OFFSET 0.006300 9.852501 -1.857000
					CHANNELS 3 Zrotation Yrotation Xrotation
					JOINT Spine2_Neck
					{
						OFFSET 0.000000 0.000000 0.000000
						CHANNELS 3 Zrotation Yrotation Xrotation
						JOINT Neck
						{
							OFFSET 0.016300 11.420799 -0.263300
							CHANNELS 3 Zrotation Yrotation Xrotation
							End Site #name: Head
							{
								OFFSET -0.019200 9.262405 2.362500
							}
						}
					}
					JOINT Spine2_LeftShoulder
					{
						OFFSET 0.000000 0.000000 0.000000
						CHANNELS 3 Zrotation Yrotation Xrotation
						JOINT LeftShoulder
						{
							OFFSET 5.616900 6.732201 -0.345700
							CHANNELS 3 Zrotation Yrotation Xrotation
							JOINT LeftArm
							{
								OFFSET 10.664888 -0.183372 -2.440700
								CHANNELS 3 Zrotation Yrotation Xrotation
								JOINT LeftForeArm
								{
									OFFSET 27.459126 0.000000 0.000000
									CHANNELS 3 Zrotation Yrotation Xrotation
									End Site #name: LeftHand
									{
										OFFSET 21.306858 0.000000 0.000000
									}
								}
							}
						}
					}
					JOINT Spine2_RightShoulder
					{
						OFFSET 0.000000 0.000000 0.000000
						CHANNELS 3 Zrotation Yrotation Xrotation
						JOINT RightShoulder
						{
							OFFSET -5.580300 6.737503 -0.344400
							CHANNELS 3 Zrotation Yrotation Xrotation
							JOINT RightArm
							{
								OFFSET -10.679335 -0.188484 -2.383900
								CHANNELS 3 Zrotation Yrotation Xrotation
								JOINT RightForeArm
								{
									OFFSET -27.503529 0.000000 0.000000
									CHANNELS 3 Zrotation Yrotation Xrotation
									End Site #name: RightHand
									{
										OFFSET -21.306808 0.000000 0.000000
									}
								}
							}
						}
					}
				}
			}
		}
	}
	JOINT Hips_LeftUpLeg
	{
		OFFSET 0.000000 0.000000 0.000000
		CHANNELS 3 Zrotation Yrotation Xrotation
		JOINT LeftUpLeg
		{
			OFFSET 6.857700 -6.739601 0.312100
			CHANNELS 3 Zrotation Yrotation Xrotation
			JOINT LeftLeg
			{
				OFFSET -0.367590 -34.731552 -4.572400
				CHANNELS 3 Zrotation Yrotation Xrotation
				End Site #name: LeftFoot
				{
					OFFSET 0.367590 -34.656704 -6.067400
				}
			}
		}
	}
	JOINT Hips_RightUpLeg
	{
		OFFSET 0.000000 0.000000 0.000000
		CHANNELS 3 Zrotation Yrotation Xrotation
		JOINT RightUpLeg
		{
			OFFSET -6.876100 -6.733299 0.301000
			CHANNELS 3 Zrotation Yrotation Xrotation
			JOINT RightLeg
			{
				OFFSET 0.347353 -34.795158 -4.515900
				CHANNELS 3 Zrotation Yrotation Xrotation
				End Site #name: RightFoot
				{
					OFFSET -0.347353 -34.589367 -6.070300
				}
			}
		}
	}
}
MOTION
Frames: 14
Frame Time: 0.041667
0.058900 0.008566 0.012172 -0.973174 -3.654103 -1.995273 0.000000 -0.000000 0.000000 0.820385 1.264659 8.187423 -0.807672 0.853549 0.397253 0.000000 0.000000 0.000000 -0.384640 -0.000992 -1.912171 1.116321 -1.782704 4.656918 -1.627958 -0.203976 0.050044 -4.917356 -5.819165 1.466669 -64.518764 3.596701 43.018939 0.171863 -23.361855 -0.344058 -0.564759 0.574592 0.395651 11.051210 -2.437326 1.890975 61.700533 23.719453 18.723237 178.871466 65.822108 179.722146 0.000000 0.000000 0.000000 -0.220347 8.170253 -16.400387 3.944589 5.526137 19.256852 0.000000 0.000000 0.000000 -1.990729 -9.994080 -11.106787 -1.668745 -3.186995 16.881937 
0.086445 0.054978 -0.045645 -1.074662 -3.382365 -1.770807 0.000000 0.000000 0.000000 -0.426169 0.451673 4.060881 -0.865290 0.512872 1.121098 0.000000 0.000000 0.000000 -0.659122 -0.226859 0.165751 2.963945 -1.448585 5.508503 -0.573304 -0.250419 1.014498 -3.797960 2.110810 0.238595 -61.712611 5.784645 47.852373 0.143268 -19.448243 0.264351 -1.209332 -0.076313 0.917137 9.982723 -1.394344 0.771397 59.039062 31.757071 4.830582 179.253921 51.843465 179.825524 0.000000 0.000000 -0.000000 0.449428 9.972286 -15.635565 3.207128 5.666004 17.721625 0.000000 0.000000 0.000000 -2.112698 -10.217425 -11.505648 -1.795413 -3.235565 16.658989 
0.195474 0.051190 -0.108454 -1.354922 -3.272440 -1.576272 0.000000 0.000000 0.000000 -0.493194 0.302792 3.413924 -0.705057 0.266612 1.723893 0.000000 0.000000 0.000000 -0.820100 -0.280686 0.575842 2.842652 -1.282151 4.875406 -0.841814 0.037577 2.182742 -5.910901 4.318239 -0.145184 -62.482774 2.744378 42.459445 0.048286 -13.808163 0.073876 -1.135410 -0.028062 1.477656 10.258875 -1.964396 0.373242 54.112716 26.864134 1.481276 179.463127 53.473313 -179.936636 0.000000 0.000000 -0.000000 0.910055 11.141037 -16.016565 3.321860 5.787760 17.883572 -0.000000 0.000000 0.000000 -1.947868 -10.040433 -11.684758 -1.453571 -3.141048 16.448973 
0.330728 0.040751 -0.176441 -1.623916 -3.200780 -1.390756 0.000000 0.000000 0.000000 -0.701468 0.554307 3.744415 -0.780270 0.147146 2.405458 0.000000 0.000000 0.000000 -0.907646 -0.257928 1.212233 1.880171 -1.684799 6.030047 -1.017757 -0.075306 2.428865 -5.400938 5.373983 -0.470569 -65.346949 -0.116425 39.516853 0.042695 -10.367672 0.119287 -1.128188 -0.056868 1.962610 9.462538 -2.426264 0.345543 50.501456 30.372383 -2.703358 179.389656 48.709070 -179.843055 -0.000000 0.000000 -0.000000 1.142734 11.696363 -16.353132 3.551445 5.880255 18.060876 -0.000000 0.000000 0.000000 -1.799400 -9.952615 -11.832987 -1.022197 -2.644303 16.482857 
0.491410 0.034259 -0.241485 -1.841748 -3.235504 -1.266800 0.000000 0.000000 0.000000 -0.886102 0.783540 4.126498 -0.996475 0.100558 2.551160 0.000000 0.000000 0.000000 -1.156687 -0.276485 1.344422 1.572666 -2.100366 7.291559 -1.177817 -0.257753 2.463667 -4.797816 5.709023 -0.513430 -67.264955 -2.036297 38.098339 0.046599 -8.734457 0.113128 -1.342429 -0.103051 2.207374 9.362785 -3.164300 0.301092 49.266373 34.143300 -4.664136 179.446754 44.937689 -179.750257 -0.000000 0.000000 -0.000000 1.273924 11.962196 -16.612854 3.640158 5.780017 18.368282 -0.000000 0.000000 0.000000 -1.729901 -9.756561 -11.915536 -0.672590 -2.389840 16.500394 
0.659240 0.030440 -0.302860 -1.993183 -3.316117 -1.184764 0.000000 -0.000000 0.000000 -1.037129 0.844898 4.323639 -1.197445 0.105836 2.579163 0.000000 0.000000 0.000000 -1.354372 -0.303400 1.389226 1.765570 -2.406341 8.149392 -1.298166 -0.375217 2.536105 -4.370000 5.538089 -0.468435 -68.621551 -3.090363 37.308163 0.075816 -7.874735 0.095591 -1.536357 -0.150424 2.248588 9.040355 -3.153824 0.324199 48.860575 36.154090 -5.759967 179.422980 43.333790 -179.706887 -0.000000 0.000000 -0.000000 1.347067 12.067229 -16.797888 3.635756 5.589202 18.681255 -0.000000 0.000000 0.000000 -1.673559 -9.582025 -11.921617 -0.443437 -2.214914 16.379091 
0.819489 0.027601 -0.361920 -2.101445 -3.382634 -1.109908 0.000000 -0.000000 0.000000 -1.034960 0.825377 4.484529 -1.294368 0.114834 2.589039 0.000000 0.000000 0.000000 -1.469032 -0.301692 1.391749 2.199921 -2.659147 8.597224 -1.390999 -0.366791 2.554893 -3.993156 5.644096 -0.475081 -69.323257 -3.512486 36.313372 0.092673 -7.968069 0.121083 -1.642681 -0.132962 2.209292 8.617490 -2.973568 0.349477 48.742325 36.691492 -5.890313 179.408519 42.625420 -179.707326 -0.000000 0.000000 -0.000000 1.380065 12.129766 -16.941439 3.593366 5.365545 18.876116 -0.000000 0.000000 0.000000 -1.621009 -9.534052 -11.953846 -0.308928 -2.024267 16.289441 
0.958015 0.024470 -0.417345 -2.197033 -3.417349 -1.029364 0.000000 -0.000000 0.000000 -1.010062 0.853490 4.568437 -1.342914 0.156725 2.574676 0.000000 0.000000 0.000000 -1.542917 -0.257880 1.380399 2.518871 -2.898774 8.908529 -1.445316 -0.294728 2.548442 -3.757883 5.829522 -0.504069 -69.487783 -3.531001 35.630297 0.097799 -8.593516 0.134051 -1.716390 -0.070098 2.162410 8.090014 -2.855771 0.367116 48.601566 36.370815 -5.898972 179.410697 42.877764 -179.711139 -0.000000 0.000000 -0.000000 1.394087 12.160439 -17.061862 3.554878 5.145843 18.943148 -0.000000 0.000000 0.000000 -1.552626 -9.554076 -12.049481 -0.232012 -1.842569 16.306071 
1.060516 0.020395 -0.466908 -2.295377 -3.443498 -0.951766 0.000000 -0.000000 0.000000 -1.002810 0.874612 4.613242 -1.367924 0.198375 2.566248 0.000000 0.000000 0.000000 -1.600628 -0.207052 1.372475 2.791200 -3.041662 9.101356 -1.491927 -0.217527 2.540570 -3.618388 6.092864 -0.543028 -69.434537 -3.213169 35.215942 0.095426 -9.157070 0.138965 -1.773124 -0.013731 2.123098 7.534383 -2.804734 0.372383 48.052593 35.767074 -6.114335 179.405841 43.383965 -179.721041 -0.000000 0.000000 -0.000000 1.419123 12.172329 -17.170027 3.524855 4.949447 18.968285 -0.000000 0.000000 0.000000 -1.469209 -9.585994 -12.170975 -0.174477 -1.689304 16.388899 
1.130301 0.015828 -0.510610 -2.382908 -3.458615 -0.889636 0.000000 -0.000000 0.000000 -1.026837 0.898828 4.668532 -1.393627 0.226385 2.553607 0.000000 0.000000 0.000000 -1.651604 -0.171146 1.347370 2.964639 -3.102573 9.182050 -1.533212 -0.165041 2.515456 -3.536607 6.339009 -0.587483 -69.274934 -2.800072 35.086777 0.092068 -9.601193 0.144523 -1.828647 0.030405 2.088817 7.036783 -2.812349 0.369746 47.148956 35.384690 -6.639614 179.395983 43.625228 -179.731227 -0.000000 0.000000 -0.000000 1.456208 12.176436 -17.254591 3.503556 4.780180 18.972708 -0.000000 0.000000 0.000000 -1.386052 -9.598027 -12.283602 -0.132710 -1.599471 16.495603 
1.170792 0.011092 -0.549128 -2.449015 -3.454373 -0.847219 0.000000 -0.000000 0.000000 -1.067076 0.919395 4.748590 -1.424171 0.240947 2.538208 0.000000 0.000000 0.000000 -1.705183 -0.152460 1.321721 3.069689 -3.115666 9.234353 -1.576178 -0.135623 2.489304 -3.462065 6.540646 -0.625474 -69.116076 -2.436438 35.164694 0.086036 -9.846463 0.149046 -1.883910 0.056575 2.065905 6.612707 -2.846974 0.367919 46.087694 35.328297 -7.452631 179.386753 43.706370 -179.734910 0.000000 0.000000 -0.000000 1.494244 12.176498 -17.314785 3.481958 4.618114 18.970999 -0.000000 0.000000 0.000000 -1.311860 -9.591186 -12.370804 -0.103790 -1.559862 16.598229 
1.185225 0.006489 -0.583494 -2.488672 -3.421006 -0.823880 0.000000 -0.000000 0.000000 -1.103556 0.938696 4.853298 -1.458356 0.247751 2.533481 0.000000 0.000000 0.000000 -1.753090 -0.141180 1.306313 3.150531 -3.108271 9.235400 -1.618538 -0.123103 2.472741 -3.393908 6.697679 -0.653564 -68.988979 -2.142963 35.303399 0.083143 -9.950280 0.154965 -1.938229 0.070131 2.056785 6.253794 -2.905344 0.362478 44.970830 35.669043 -8.511430 179.370857 43.560400 -179.741687 0.000000 0.000000 -0.000000 1.525270 12.178742 -17.353566 3.457251 4.461231 18.964038 0.000000 0.000000 0.000000 -1.253454 -9.575390 -12.425182 -0.084635 -1.549153 16.677795 
1.176849 0.002118 -0.614650 -2.500586 -3.360732 -0.817612 0.000000 -0.000000 0.000000 -1.129219 0.955285 4.960015 -1.487505 0.253115 2.534026 0.000000 0.000000 0.000000 -1.795980 -0.134036 1.303805 3.207435 -3.103240 9.228237 -1.652418 -0.118383 2.468576 -3.333278 6.802166 -0.673395 -68.938485 -1.940413 35.386859 0.082008 -9.957734 0.161500 -1.981293 0.077238 2.062800 5.988605 -2.971594 0.352145 44.081458 36.260846 -9.529399 179.355396 43.239569 -179.748510 0.000000 0.000000 -0.000000 1.545877 12.178698 -17.371953 3.430419 4.306721 18.944814 0.000000 0.000000 0.000000 -1.215425 -9.571986 -12.456193 -0.066119 -1.542532 16.746383 
1.149003 -0.002328 -0.643262 -2.495972 -3.274095 -0.820861 0.000000 -0.000000 0.000000 -1.150794 0.967301 5.043019 -1.508750 0.257332 2.542215 0.000000 0.000000 0.000000 -1.827726 -0.125946 1.312743 3.271834 -3.110674 9.208489 -1.676782 -0.114171 2.478616 -3.288381 6.877348 -0.686108 -68.941747 -1.829127 35.391027 0.081311 -9.909053 0.168018 -2.011298 0.081095 2.077767 5.798884 -3.036045 0.346551 43.456000 36.789153 -10.423412 179.339446 42.787808 -179.760155 0.000000 0.000000 -0.000000 1.555890 12.176083 -17.378421 3.402160 4.157026 18.921586 0.000000 0.000000 0.000000 -1.191442 -9.584405 -12.474652 -0.043869 -1.530474 16.812112 
